<svg xmlns="http://www.w3.org/2000/svg" width="244.306" height="70.788" viewBox="0 0 244.306 70.788">
    <defs>
        <style>
            .cls-1{fill:#a50c22}
        </style>
    </defs>
    <g id="Group_5395" transform="translate(-1547.255 1196.839)">
        <g id="Group_5385" transform="translate(1547.255 -1196.839)">
            <g id="Group_5325" transform="translate(30.158 .11)">
                <path id="Path_9801" d="M1572.459-1192.66a1.192 1.192 0 0 1-.154.052c-.7.085-.7.085-.995-.549-.172-.366-.172-.366-.588-.332-.342.026-.682.056-1.022.069a.373.373 0 0 0-.414.336 6.26 6.26 0 0 1-.2.693l-.845.063c.042-.155.068-.267.1-.376q.573-1.856 1.151-3.71c.092-.306.095-.313.41-.323.7-.019.516-.151.833.491.515 1.046 1.016 2.1 1.522 3.15.066.137.128.275.2.437m-2.324-3.031l-.092.009-.454 1.584c.44-.029.808-.053 1.236-.083-.244-.546-.451-1.035-.69-1.509" class="cls-1" transform="translate(-1568.24 1196.763)"/>
            </g>
            <g id="Group_5326" transform="translate(36.478 1.213)">
                <path id="Path_9802" d="M1572.638-1194.327a1.54 1.54 0 0 1 1.568-1.668 1.549 1.549 0 0 1 1.612 1.558 1.551 1.551 0 0 1-1.563 1.677 1.5 1.5 0 0 1-1.617-1.566m2.4-.089l-.033-.006a1.744 1.744 0 0 0 0-.211.753.753 0 0 0-.661-.711.757.757 0 0 0-.834.555 1.4 1.4 0 0 0-.026.833.755.755 0 0 0 .687.565.73.73 0 0 0 .743-.481 3.605 3.605 0 0 0 .125-.543" class="cls-1" transform="translate(-1572.638 1195.995)"/>
            </g>
            <g id="Group_5327" transform="translate(40.246 1.655)">
                <path id="Path_9803" d="M1576-1192.524l-.743-.165c.233-1.009.46-1.986.693-3l.672.138c-.01.133-.016.244-.026.408.122-.056.217-.106.318-.147a1.238 1.238 0 0 1 1.24.124.731.731 0 0 1 .343.657 2.643 2.643 0 0 1-.053.49c-.124.575-.259 1.145-.391 1.719-.015.068-.046.131-.081.234-.24-.058-.473-.111-.733-.171.109-.479.213-.924.31-1.368a5.8 5.8 0 0 0 .119-.624c.036-.348-.07-.525-.338-.615a.633.633 0 0 0-.744.246 1.3 1.3 0 0 0-.161.388c-.122.479-.233.96-.349 1.44-.016.066-.042.134-.078.244" class="cls-1" transform="translate(-1575.26 1195.687)"/>
            </g>
            <g id="Group_5328" transform="translate(34.883)">
                <path id="Path_9804" d="M1571.59-1196.839h.749c.053.707 0 1.407 0 2.105s-.02 1.408-.032 2.138h-.776c-.016-1.411.07-2.8.06-4.244" class="cls-1" transform="translate(-1571.528 1196.839)"/>
            </g>
            <g id="Group_5329" transform="translate(9.362 17.625)">
                <path id="Path_9805" d="M1604.761-1165.194a25.579 25.579 0 0 1-25.508 23.551 25.58 25.58 0 0 1-25.484-23.424 12.868 12.868 0 0 0 12.74 10.658 12.738 12.738 0 0 0 12-8.522c-.158-.1-.323-.2-.49-.306a9.135 9.135 0 0 1-3.348-3.47 6.526 6.526 0 0 1-.816-2.937 5.933 5.933 0 0 1 .87-3.3 12.185 12.185 0 0 1 1.127-1.536 15.449 15.449 0 0 0 2.153-3.057 7.375 7.375 0 0 0 .823-3.011 9.358 9.358 0 0 0-.223-2.21c-.1-.5-.175-1-.255-1.5a2.158 2.158 0 0 1 0-.315 2.855 2.855 0 0 1 .28.144 16.547 16.547 0 0 1 5.518 6.279 11.177 11.177 0 0 1 1.168 5.336 11.177 11.177 0 0 1-1.631 5.711 10.713 10.713 0 0 1-2.4 2.618c-.312.252-.621.507-.927.765-.1.083-.184.182-.279.272a.419.419 0 0 0-.1.509 12.859 12.859 0 0 0 1.074 2.265 12.578 12.578 0 0 0 8.766 6.062 12.79 12.79 0 0 0 14.007-7.453 14.15 14.15 0 0 0 .943-3.126" class="cls-1" transform="translate(-1553.769 1184.575)"/>
            </g>
            <g id="Group_5330" transform="translate(0 38.869)">
                <path id="Path_9806" d="M1553.6-1164.192l-.244-.841a.834.834 0 0 1 .141-.1 1.527 1.527 0 0 0 .978-1.733 3.393 3.393 0 0 0-.345-1.253 1.308 1.308 0 0 0-.7-.665.938.938 0 0 0-1.3.658 9.252 9.252 0 0 0-.142 1.295c-.036.517-.039 1.036-.078 1.552a3.4 3.4 0 0 1-.132.655 2.033 2.033 0 0 1-3.107 1.117 2.636 2.636 0 0 1-1.03-1.269 4.418 4.418 0 0 1-.3-2.628 2.457 2.457 0 0 1 1.755-1.9 1.067 1.067 0 0 1 .169-.02c.086.282.173.556.26.841a1.527 1.527 0 0 1-.174.1 1.762 1.762 0 0 0-1.153 1.561 3.016 3.016 0 0 0 .609 2.256 1.157 1.157 0 0 0 1.021.463.975.975 0 0 0 .908-.624 3.212 3.212 0 0 0 .2-.854c.047-.516.04-1.036.08-1.553a7.048 7.048 0 0 1 .162-1.22 1.765 1.765 0 0 1 1.676-1.43 1.959 1.959 0 0 1 1.836.915 3.851 3.851 0 0 1 .607 1.569 3.756 3.756 0 0 1 0 1.371 2.15 2.15 0 0 1-1.7 1.737" class="cls-1" transform="translate(-1547.255 1169.792)"/>
            </g>
            <g id="Group_5331" transform="translate(4.092 49.963)">
                <path id="Path_9807" d="M1555.058-1161.444l-.525.441.011.073a2.067 2.067 0 0 1 1.7.793 1.611 1.611 0 0 1 .232 1.859c.152.019.273.037.394.045a1.984 1.984 0 0 1 1.638 1.023 1.478 1.478 0 0 1-.181 1.886 2.941 2.941 0 0 1-.358.339q-1.476 1.157-2.953 2.308c-.046.036-.1.065-.185.125l-.549-.691c.109-.09.2-.171.286-.24.8-.627 1.6-1.247 2.393-1.874a5.518 5.518 0 0 0 .585-.512.856.856 0 0 0 .155-1.072 1.323 1.323 0 0 0-1.732-.648 3.3 3.3 0 0 0-.6.362c-.769.588-1.526 1.186-2.288 1.78-.1.078-.2.149-.326.242-.19-.242-.359-.463-.548-.7.111-.095.194-.174.286-.244.825-.648 1.654-1.288 2.475-1.94a3.733 3.733 0 0 0 .581-.565.835.835 0 0 0 .023-1.049 1.317 1.317 0 0 0-1.7-.52 4.761 4.761 0 0 0-.867.539c-.678.51-1.341 1.041-2.009 1.562-.1.079-.2.152-.329.244l-.565-.71 4.45-3.482c.174.217.328.405.506.628" class="cls-1" transform="translate(-1550.102 1162.072)"/>
            </g>
            <g id="Group_5332" transform="translate(14.92 13.958)">
                <path id="Path_9808" d="M1563.2-1187.126l.53.681-.6.51 2.929 3.758a1.779 1.779 0 0 1-.256.072c-.141.014-.285 0-.422.026a.691.691 0 0 1-.74-.333c-.657-.877-1.341-1.733-2.016-2.6-.078-.1-.161-.2-.26-.319a4.349 4.349 0 0 0-1.111.937c1.1 1.137 2.189 2.271 3.338 3.462-.4.068-.727.136-1.059.171-.079.009-.187-.08-.256-.151-.382-.385-.756-.779-1.133-1.167-.082-.082-.167-.159-.287-.271-.335.371-.654.721-.993 1.1l.79.736a.383.383 0 0 1-.384.19c-.424-.006-.848-.01-1.272-.017a.457.457 0 0 1-.484-.283.523.523 0 0 1 .128-.582c.454-.494.9-1 1.347-1.5.079-.087.152-.178.256-.3l-.7-.724c-.844.724-1.483 1.592-2.261 2.377l-.654-.579c.582-.645 1.137-1.265 1.7-1.893l.263.182.021-.027-.156-.23a25.07 25.07 0 0 1 3.738-3.226" class="cls-1" transform="translate(-1557.637 1187.126)"/>
            </g>
            <g id="Group_5333" transform="translate(40.438 6.473)">
                <path id="Path_9809" d="M1577.3-1187.023l.079.75c-.28.027-.523.049-.766.079a1.381 1.381 0 0 0-.307.072.367.367 0 0 0-.292.424.384.384 0 0 0 .343.389 3.467 3.467 0 0 0 .731-.024 2.612 2.612 0 0 0 .408-.115l-.035.391a9.725 9.725 0 0 0 .79-2.144l-2.653-.742c.082-.3.154-.55.231-.826a2.509 2.509 0 0 1 .257.039c.556.158 1.111.319 1.665.477l1.366.388a4.352 4.352 0 0 0-.317-.405 5.437 5.437 0 0 0-1.8-1.283.443.443 0 0 1-.325-.473c0-.233-.034-.464-.059-.773a7.653 7.653 0 0 1 1.03.488 7.609 7.609 0 0 1 .844.763 1.319 1.319 0 0 0-.023-.22c-.1-.3-.206-.6-.316-.9a.716.716 0 0 0-.411-.5.263.263 0 0 1-.13-.185c-.037-.3-.056-.606-.086-.982a7.978 7.978 0 0 1 .99.47.964.964 0 0 1 .316.494c.171.526.328 1.056.453 1.6.136.583.247 1.176.336 1.769.042.277.124.47.421.516a1.053 1.053 0 0 1 .2.093l-.28.806c-.25-.081-.473-.15-.742-.236-.312.739-.553 1.5-.832 2.242s-.54 1.474-.835 2.285c-.233-.322-.433-.579-.607-.855a.423.423 0 0 1 .009-.3c.093-.3.2-.6.323-.944h-.443a1.392 1.392 0 0 1-1.444-1.345 1.02 1.02 0 0 1 .469-.967 2.127 2.127 0 0 1 1.437-.316" class="cls-1" transform="translate(-1575.393 1192.335)"/>
            </g>
            <g id="Group_5334" transform="translate(32.393 9.269)">
                <path id="Path_9810" d="M1569.883-1189.367c-.023-.115-.052-.206-.06-.3-.014-.175-.017-.351-.027-.555.385-.035.746-.066 1.106-.095.295-.023.588-.046.883-.063a.662.662 0 0 1 .533.1c.056.049.183.024.274.024h2.025a1.914 1.914 0 0 1 .029.871l-.737.034c-.01.142-.023.266-.023.392 0 1.321 0 2.641-.006 3.961a.53.53 0 0 0 .244.5 1.247 1.247 0 0 1 .4 1.433 1.119 1.119 0 0 1-1.122.8 1.793 1.793 0 0 1-1.22-.388 3.979 3.979 0 0 1-.513-.483 11.541 11.541 0 0 1-1.066-1.513.507.507 0 0 1 .651.243 4.237 4.237 0 0 0 .967 1.12 1.361 1.361 0 0 0 1.312.321.592.592 0 0 0 .464-.556.457.457 0 0 0-.646-.487 1.762 1.762 0 0 0-.408.272 2.242 2.242 0 0 0-.234.254l-.454-.658a1.142 1.142 0 0 1 1.154-.6c-.029-.175-.162-.223-.262-.28a.433.433 0 0 1-.224-.44c.01-.565 0-1.13 0-1.7 0-.126-.01-.253-.019-.426-.555.046-1.081.073-1.6.138a.457.457 0 0 0-.371.556 1.886 1.886 0 0 0 .164.5 4.126 4.126 0 0 0 .857 1.16c.076.073.161.137.277.234l-.345.257a1.549 1.549 0 0 1-.2-.155c-.335-.394-.687-.776-.994-1.193a2.326 2.326 0 0 1-.47-1.454.909.909 0 0 1 .256-.676.7.7 0 0 1 .358-.2c.631-.068 1.265-.108 1.934-.162.029.21.056.389.08.572a3.554 3.554 0 0 0 .015-1.339l-.335-.02c-.07 0-.162.016-.208-.02-.21-.171-.445-.1-.675-.085-.493.032-.986.07-1.479.1-.092.006-.183 0-.284 0" class="cls-1" transform="translate(-1569.795 1190.389)"/>
            </g>
            <g id="Group_5335" transform="translate(42.427 60.892)">
                <path id="Path_9811" d="M1580.056-1151.532l-.9-2.64.856-.295c.852 2.47 1.693 4.915 2.548 7.4-.27.093-.519.178-.782.27l-.248-.6c-.059.105-.1.167-.131.233a2.031 2.031 0 0 1-2.013 1.147 2.512 2.512 0 0 1-1.913-1.186 4.081 4.081 0 0 1-.688-2.579 2.158 2.158 0 0 1 3.024-1.847c.049.027.106.04.246.093m-2.374 2.071a3.9 3.9 0 0 0 .714 1.973 1.571 1.571 0 0 0 1.151.68 1.432 1.432 0 0 0 1.538-1.546 3.677 3.677 0 0 0-.812-2.182 1.467 1.467 0 0 0-1.648-.494 1.51 1.51 0 0 0-.943 1.569" class="cls-1" transform="translate(-1576.777 1154.467)"/>
            </g>
            <g id="Group_5336" transform="translate(32.822 62.351)">
                <path id="Path_9812" d="M1577.876-1153.452c.07.37.131.687.2 1.031-.3.063-.565.115-.842.172l-.161-.226a.975.975 0 0 0-.057.111q-.567 1.6-1.131 3.2l-1.336 3.8c-.116.328-.118.328-.474.339-.177.006-.352.01-.53.013-.035 0-.069-.009-.152-.017l-3.292-7.693 1.073-.05c.9 2.269 1.8 4.531 2.708 6.83a1.382 1.382 0 0 0 .108-.205l2.134-6.513c.091-.282.1-.284.4-.3.15-.009.3-.013.461-.022.021-.112.04-.2.063-.312l.838-.154" class="cls-1" transform="translate(-1570.094 1153.452)"/>
            </g>
            <g id="Group_5337" transform="translate(52.056 58.092)">
                <path id="Path_9813" d="M1590.2-1152.747c-.112.1-.188.17-.267.236-.145.119-.29.234-.451.365-.192-.125-.366-.24-.553-.359-.144.1-.122.273-.161.408a2.949 2.949 0 0 1-1.469 1.819 1.625 1.625 0 0 1-.983.224 1.582 1.582 0 0 1-1.313-2.11 2.675 2.675 0 0 1 .581-.92q.6-.653 1.178-1.315a4.484 4.484 0 0 0 .269-.378c-.156-.169-.3-.339-.457-.487a.772.772 0 0 0-.76-.171 2.281 2.281 0 0 0-1.352 1.068.976.976 0 0 0-.065.723c.027.125.073.247.127.421-.239.144-.482.292-.746.45a1.7 1.7 0 0 1-.175-1.55 3.594 3.594 0 0 1 2.271-2.028 1.238 1.238 0 0 1 1.3.346 6.971 6.971 0 0 1 .563.632c.315.382.614.776.935 1.151a5.075 5.075 0 0 0 1.532 1.474m-2.709-1.437c-.24.312-.441.587-.657.848s-.466.532-.7.8a1.619 1.619 0 0 0-.164.23.85.85 0 0 0 .027 1.02.888.888 0 0 0 1.016.284 1.978 1.978 0 0 0 1.223-1.673 2.288 2.288 0 0 0-.75-1.508" class="cls-1" transform="translate(-1583.478 1156.416)"/>
            </g>
            <g id="Group_5338" transform="translate(22.771 63.614)">
                <path id="Path_9814" d="M1564.853-1151.107l-.784-.353a1.78 1.78 0 0 1 1.624-1.109 3.918 3.918 0 0 1 2.286.6 1.344 1.344 0 0 1 .65 1.61c-.193.775-.43 1.542-.636 2.315-.1.375-.2.752-.259 1.135a4.75 4.75 0 0 0-.007.732c-.2-.055-.372-.1-.539-.147-.39-.11-.4-.132-.379-.539 0-.069.01-.136.017-.22-.164-.063-.286.04-.407.083a2.931 2.931 0 0 1-2.459-.193 1.524 1.524 0 0 1-.7-2.049 1.542 1.542 0 0 1 1.428-.933 8.578 8.578 0 0 1 1.193.089c.457.043.911.1 1.368.142.3.024.328 0 .411-.307a.964.964 0 0 0-.562-1.282 4.094 4.094 0 0 0-.975-.29 1.028 1.028 0 0 0-1 .392c-.082.1-.162.2-.261.319m2.489 1.913a1.277 1.277 0 0 0-.164-.039c-.528-.043-1.055-.088-1.584-.124a4.958 4.958 0 0 0-.7-.023.813.813 0 0 0-.767.624.821.821 0 0 0 .328.934 2.016 2.016 0 0 0 .705.3 1.636 1.636 0 0 0 1.749-.558 2.934 2.934 0 0 0 .437-1.115" class="cls-1" transform="translate(-1563.1 1152.573)"/>
            </g>
            <g id="Group_5339" transform="translate(10.477 57.07)">
                <path id="Path_9815" d="M1557.867-1150.3l-.7-.615.269-.657-.438-.043a2.858 2.858 0 0 1-2.187-1.326 1.546 1.546 0 0 1 .921-2.361 1.713 1.713 0 0 1 1.234.148c.285.141.549.319.82.483.412.248.819.51 1.239.746.274.155.306.136.5-.1a.972.972 0 0 0 .016-1.428 4.024 4.024 0 0 0-.681-.608 1.077 1.077 0 0 0-1.23-.066c-.082.045-.164.085-.272.141-.188-.218-.371-.425-.572-.657a1.727 1.727 0 0 1 1.592-.424 3.669 3.669 0 0 1 2.229 1.73 1.31 1.31 0 0 1-.142 1.61c-.466.578-.96 1.132-1.441 1.7-.037.044-.078.086-.115.132a4.68 4.68 0 0 0-1.039 1.6m.954-2.916c-.088-.059-.123-.086-.161-.106q-.707-.4-1.413-.792a4.5 4.5 0 0 0-.56-.293.853.853 0 0 0-1.14.47.913.913 0 0 0 .155.931 2.02 2.02 0 0 0 .953.7 1.5 1.5 0 0 0 1.631-.336c.175-.171.337-.356.535-.569" class="cls-1" transform="translate(-1554.545 1157.127)"/>
            </g>
            <g id="Group_5340" transform="translate(63.399 42.57)">
                <path id="Path_9816" d="M1592.8-1163.4l-.377.775a1.8 1.8 0 0 1-1.056-1.732 4.035 4.035 0 0 1 .6-2.078 1.4 1.4 0 0 1 1.778-.694c.678.194 1.345.428 2.021.635a5.267 5.267 0 0 0 2.061.4l-.233.736a.216.216 0 0 1-.243.159c-.151-.006-.3-.014-.5-.026.045.164.078.306.121.444a2.91 2.91 0 0 1-.237 2.323 1.535 1.535 0 0 1-1.729.861 1.556 1.556 0 0 1-1.266-1.536 8.06 8.06 0 0 1 .1-1.157c.062-.49.147-.978.2-1.469.036-.3.007-.319-.262-.407a.986.986 0 0 0-1.349.55 4.314 4.314 0 0 0-.312 1.041.934.934 0 0 0 .323.858c.109.1.224.2.35.314m1.975-2.387c-.047.454-.088.887-.138 1.316-.036.315-.1.628-.124.943a.872.872 0 0 0 .662.957.885.885 0 0 0 1.009-.464 2.014 2.014 0 0 0 .217-1.532 1.747 1.747 0 0 0-1.627-1.22" class="cls-1" transform="translate(-1591.371 1167.217)"/>
            </g>
            <g id="Group_5341" transform="translate(58.536 47.861)">
                <path id="Path_9817" d="M1595.269-1158.114c-.147.268-.278.5-.432.784-2.3-1.26-4.558-2.525-6.849-3.794l.448-.8 2.439 1.346c-.027-.18-.037-.282-.057-.384a2.333 2.333 0 0 1 .994-2.332 1.429 1.429 0 0 1 1.219-.177 4.062 4.062 0 0 1 .782.321c1.025.556 2.042 1.127 3.061 1.691.05.029.1.063.177.118l-.426.779c-.132-.066-.237-.115-.338-.17-.917-.507-1.831-1.019-2.752-1.522a2.921 2.921 0 0 0-.581-.253 1.021 1.021 0 0 0-1.138.359 1.45 1.45 0 0 0 .221 2.153c.539.377 1.13.68 1.7 1.008.437.251.885.49 1.328.737.059.033.115.076.2.135" class="cls-1" transform="translate(-1587.987 1163.535)"/>
            </g>
            <g id="Group_5342" transform="translate(51.866 20.06)">
                <path id="Path_9818" d="M1586.561-1177.75c-.155.076-.269.137-.387.188-.257.112-.441-.006-.451-.287a.615.615 0 0 1 .019-.211c.109-.361.219-.721.344-1.075a.649.649 0 0 1 .181-.254c.246-.224.405-.2.582.085.036.057.081.111.145.2.4-.218.783-.433 1.194-.658a9.076 9.076 0 0 0-.736-1.25l-4.073 2.541a1.8 1.8 0 0 1-.033-.267c.006-.187.041-.376.03-.563a.479.479 0 0 1 .272-.482c.976-.592 1.94-1.2 2.907-1.811.109-.068.215-.139.355-.233-.1-.193-.2-.372-.319-.589l.734-.461a44.614 44.614 0 0 1 2.546 4.3l-.746.415-.458-.773-1.227.68c.214.4.413.763.635 1.176l-.856.483c-.223-.388-.43-.753-.658-1.151" class="cls-1" transform="translate(-1583.346 1182.88)"/>
            </g>
            <g id="Group_5343" transform="translate(19.875 10.619)">
                <path id="Path_9819" d="M1562.065-1186.476l1.315-.732 1.318-.736a1.022 1.022 0 0 0-.18-.152c-.367-.16-.73-.331-1.107-.463a1.263 1.263 0 0 0-1.124.1.46.46 0 0 1-.632-.068 6.67 6.67 0 0 0-.571-.438 2.2 2.2 0 0 1 1.781-.408 9.637 9.637 0 0 1 2.12.954.408.408 0 0 0 .576-.012l.438.773c-.263.155-.5.3-.783.464l.825 1.515-.694.385c-.154.086-.311.17-.462.26a.658.658 0 0 0-.243.964.915.915 0 0 0 1.362.167.692.692 0 0 0-.071-.106.552.552 0 0 1-.106-.7.691.691 0 0 1 .7-.374.457.457 0 0 1 .25.113c.265.3.528.618.379 1.072a.509.509 0 0 0 0 .126 2.146 2.146 0 0 1 .858.569l-.525.3c-.238-.138-.448-.262-.66-.381a.32.32 0 0 0-.333.006 1.918 1.918 0 0 1-2.536-.739 2.267 2.267 0 0 1-.269-.72.767.767 0 0 1 .463-.9c.205-.117.41-.232.614-.351.02-.01.033-.033.083-.09-.115-.214-.24-.446-.385-.711l-1.974 1.085-.43-.77" class="cls-1" transform="translate(-1561.085 1189.45)"/>
            </g>
            <g id="Group_5344" transform="translate(2.03 45.635)">
                <path id="Path_9820" d="M1551.126-1159.507a2.17 2.17 0 0 1-1.414-.542 2.834 2.834 0 0 1-1.026-1.914 2.31 2.31 0 0 1 .887-2.156 4.231 4.231 0 0 1 2.248-.95 2.254 2.254 0 0 1 1.485.351 2.845 2.845 0 0 1 1.243 2.777 2.382 2.382 0 0 1-.618 1.247 4.313 4.313 0 0 1-2.8 1.187m.921-4.643a3.359 3.359 0 0 0-2.124.983 1.509 1.509 0 0 0-.318 1.763 1.5 1.5 0 0 0 1.51.96 3.134 3.134 0 0 0 2.209-.973 1.515 1.515 0 0 0 .316-1.763 1.593 1.593 0 0 0-1.594-.97" class="cls-1" transform="translate(-1548.667 1165.083)"/>
            </g>
            <g id="Group_5345" transform="translate(12.201 19.402)">
                <path id="Path_9821" d="M1556.85-1179.419l-.38.557c-.244-.149-.47-.289-.726-.443a26.8 26.8 0 0 1 2.659-4.034l.691.493-.44.656c1.283.935 2.554 1.864 3.879 2.831a4.641 4.641 0 0 1-1 .355c-.1.021-.24-.072-.338-.144-.92-.658-1.832-1.325-2.746-1.989l-.367-.256a6.033 6.033 0 0 0-.743 1.13c1.37.823 2.716 1.635 4.1 2.469a4.007 4.007 0 0 1-.962.468c-.08.03-.22-.056-.316-.115-.96-.572-1.918-1.15-2.876-1.724-.139-.085-.282-.163-.443-.254" class="cls-1" transform="translate(-1555.745 1183.338)"/>
            </g>
            <g id="Group_5346" transform="translate(46.844 60.425)">
                <path id="Path_9822" d="M1579.851-1152.388l.862-.461 3.536 3.23a.624.624 0 0 0 .02-.141l-.54-3.525c-.045-.292-.073-.585-.124-.874a.255.255 0 0 1 .152-.315c.2-.093.394-.2.625-.319.079.568.152 1.091.221 1.613.207 1.564.42 3.127.614 4.693a9.538 9.538 0 0 1 .089 1.373 1.391 1.391 0 0 1-1.062 1.378c-.259.072-.285.065-.441-.154-.1-.144-.2-.29-.311-.461.135-.059.25-.106.364-.155a.95.95 0 0 0 .652-1.052v-.034a1.462 1.462 0 0 0-.573-1.21c-1.3-1.089-2.56-2.228-3.833-3.348-.078-.068-.149-.141-.252-.237" class="cls-1" transform="translate(-1579.851 1154.792)"/>
            </g>
            <g id="Group_5347" transform="translate(16.404 60.95)">
                <path id="Path_9823" d="M1561.891-1154.427c.322.17.588.31.869.462l-.7 4.745c1.206-1.091 2.378-2.154 3.561-3.223l.767.4a1.3 1.3 0 0 1-.155.2c-1.677 1.483-3.35 2.968-5.037 4.438a3.8 3.8 0 0 1-.883.575 1.35 1.35 0 0 1-1.51-.263.288.288 0 0 1-.1-.37c.076-.181.149-.365.234-.578.139.094.251.174.369.244a.958.958 0 0 0 1.234-.089 1.555 1.555 0 0 0 .674-1.161c.159-1.581.385-3.155.585-4.731.026-.2.056-.392.095-.657" class="cls-1" transform="translate(-1558.67 1154.427)"/>
            </g>
            <g id="Group_5348" transform="translate(46.369 13.854)">
                <path id="Path_9824" d="M1582.221-1186.742c.168-.145.337-.288.535-.457.065.05.188.141.306.233.456.356.907.713 1.364 1.066.108.085.208.162.115.325.057-.033.116-.068.207-.118l2.163 2.015c-.2.217-.379.421-.583.645a28.917 28.917 0 0 0-2.9-2.492l-2.965 3.791c-.123-.379-.237-.686-.317-1a.408.408 0 0 1 .1-.279c.175-.246.365-.483.576-.757-.119-.027-.183-.043-.246-.059a1.418 1.418 0 0 1-.793-2.174 1.092 1.092 0 0 1 1.214-.437c.634.148.7.243.652.88-.007.068-.023.132-.042.227a2.95 2.95 0 0 0-.375-.141 4.571 4.571 0 0 0-.759-.125.654.654 0 0 0-.382.146.291.291 0 0 0 0 .5 1.138 1.138 0 0 0 .721.243h.743l1.115-1.431c-.142-.118-.26-.213-.377-.307-.093-.078-.182-.158-.078-.292z" class="cls-1" transform="translate(-1579.52 1187.199)"/>
            </g>
            <g id="Group_5349" transform="translate(24.79 10.052)">
                <path id="Path_9825" d="M1566.432-1189.125c.1.19.165.322.231.453l.045-.016c-.036-.168-.07-.335-.1-.5a12 12 0 0 1 2.333-.658c.069.247.14.5.216.779-.259.085-.477.159-.74.249l1.306 4.587a4.174 4.174 0 0 1-1.016-.3c-.063-.023-.1-.147-.134-.231-.083-.254-.157-.513-.243-.806-.119.088-.207.158-.3.223a1.422 1.422 0 0 1-2.137-.841 1.3 1.3 0 0 1 .941-1.463.271.271 0 0 1 .193.043c.175.135.341.282.526.438-.193.128-.365.23-.519.352a1.176 1.176 0 0 0-.471.6.418.418 0 0 0 .094.457.362.362 0 0 0 .43.009 1.52 1.52 0 0 0 .66-.62c.072-.115.151-.227.253-.385l-.526-1.824c-.9.322-1.723.708-2.624 1.044l-.338-.815 1.927-.777" class="cls-1" transform="translate(-1564.505 1189.844)"/>
            </g>
            <g id="Group_5350" transform="translate(49.15 17.364)">
                <path id="Path_9826" d="M1581.857-1181.161c-.243-.029-.372-.126-.383-.359a6.947 6.947 0 0 1 .125-2 1.666 1.666 0 0 1 .78-1.049.926.926 0 0 1 1.491.769l.017.239c.765-.024.96.168.905.914l.335-.119c.095.111.194.211.278.322.247.329.855.132.993-.228a.381.381 0 0 0-.092-.394c-.171-.208-.338-.421-.526-.657l.667-.552c.542.6 1.013 1.242 1.555 1.89-.234.191-.445.366-.674.552l-.434-.478c-.068.082-.128.146-.181.217a1.684 1.684 0 0 1-.992.63 1.2 1.2 0 0 1-.806-.144.417.417 0 0 0 .013.58 1.584 1.584 0 0 0 .775.535c.143.049.295.075.5.127a7.943 7.943 0 0 1-.826.665c-.047.033-.161.007-.23-.025a1.418 1.418 0 0 1-.922-1.871 8.929 8.929 0 0 1 .365-.842c-.25-.412-.532-.451-.867-.109-.2.2-.387.411-.614.651l-.32-.72c.159-.174.314-.346.474-.517.121-.131.26-.253.145-.458a.57.57 0 0 0-.6-.273.876.876 0 0 0-.568.5 3.981 3.981 0 0 0-.306 1.336c-.029.289-.049.579-.073.878" class="cls-1" transform="translate(-1581.456 1184.756)"/>
            </g>
            <g id="Group_5351" transform="translate(55.435 53.461)">
                <path id="Path_9827" d="M1585.829-1155.88l.642-.7c1.443.624 2.884 1.248 4.363 1.885a4.9 4.9 0 0 0-.41-.854c-.136-.287-.286-.568-.431-.851s-.288-.566-.431-.849-.29-.565-.434-.848-.285-.565-.435-.864l.631-.68c.115.22.21.394.3.572q1.117 2.266 2.23 4.53c.157.318.158.319-.082.572-.418.44-.283.408-.821.19q-2.4-.975-4.8-1.96c-.094-.039-.187-.085-.318-.145" class="cls-1" transform="translate(-1585.829 1159.638)"/>
            </g>
            <g id="Group_5352" transform="translate(1.971 20.165)">
                <path id="Path_9828" d="M1551.3-1179.957c.137.31.239.585.377.842a.59.59 0 0 0 .275.2c.3.134.6.253.951.394-.1.262-.2.494-.3.765l-3.975-1.608.311-.757c.578.228 1.138.448 1.7.671l.059-.06-.15-.338c-.273-.575-.542-1.151-.823-1.722a.5.5 0 0 1-.016-.47c.108-.231.2-.471.321-.765.085.175.146.3.2.423.2.451.4.9.6 1.355.138.3.148.308.486.241.762-.148 1.523-.3 2.285-.45.124-.023.249-.036.428-.062-.131.326-.227.6-.355.864a.386.386 0 0 1-.259.138c-.616.1-1.233.188-1.851.28-.068.01-.135.03-.262.06" class="cls-1" transform="translate(-1548.626 1182.807)"/>
            </g>
            <g id="Group_5353" transform="translate(21.474 3.048)">
                <path id="Path_9829" d="M1563.142-1190.559c.247-.066.492-.136.739-.194a.225.225 0 0 1 .159.047.493.493 0 0 0 .5.047c.5-.168.624-.414.443-.918-.043-.119-.095-.236-.162-.4-.066.1-.114.158-.149.223a1.121 1.121 0 0 1-1.718.366 1.915 1.915 0 0 1-.737-1.847 1.166 1.166 0 0 1 1.584-.944c.063.022.13.04.229.073l-.066-.379.619-.234a1.318 1.318 0 0 1 .1.188c.316.812.637 1.623.934 2.44a4.093 4.093 0 0 1 .19.855.755.755 0 0 1-.294.685 2.454 2.454 0 0 1-1.62.6.75.75 0 0 1-.757-.612m-.165-2.488a1.618 1.618 0 0 0 .332.9.65.65 0 0 0 .739.267.7.7 0 0 0 .487-.7 1.439 1.439 0 0 0-.386-.957.648.648 0 0 0-.77-.167.657.657 0 0 0-.4.651" class="cls-1" transform="translate(-1562.197 1194.718)"/>
            </g>
            <g id="Group_5354" transform="translate(9.176 9.894)">
                <path id="Path_9830" d="M1553.64-1186.7l.55-.524q.884.465 1.768.927a.618.618 0 0 0 .054-.052c-.3-.588-.69-1.13-1.019-1.733l.52-.542 1.8 1.013a3.983 3.983 0 0 0-.474-.947c-.159-.3-.332-.594-.509-.9l.471-.494a18.741 18.741 0 0 1 1.568 2.828c-.161.148-.332.3-.545.5l-1.68-.922-.06.063c.306.563.666 1.1 1 1.679-.169.181-.336.359-.526.559-.956-.477-1.9-.945-2.912-1.447" class="cls-1" transform="translate(-1553.64 1189.954)"/>
            </g>
            <g id="Group_5355" transform="translate(17.906 3.574)">
                <path id="Path_9831" d="M1561.322-1194.352c.7 1.258 1.374 2.482 2.071 3.738-.206.119-.393.231-.6.349-.085-.108-.155-.2-.243-.3a1.159 1.159 0 0 0-.089.164 1.189 1.189 0 0 1-1.968.521 2.232 2.232 0 0 1-.769-1.4 1.207 1.207 0 0 1 1.4-1.375 2.17 2.17 0 0 0 .228 0c-.245-.454-.474-.872-.719-1.322l.68-.377m-.057 2.136a.688.688 0 0 0-.756.72 1.572 1.572 0 0 0 .509 1.015.668.668 0 0 0 .808.131.687.687 0 0 0 .322-.756 1.621 1.621 0 0 0-.489-.878 1.652 1.652 0 0 0-.394-.232" class="cls-1" transform="translate(-1559.715 1194.352)"/>
            </g>
            <g id="Group_5356" transform="translate(53.135 6.784)">
                <path id="Path_9832" d="M1585.075-1188.6l-.3.275-.542-.423c.868-1.132 1.74-2.234 2.624-3.369.118.083.221.152.32.229s.177.151.289.244c-.3.392-.583.772-.9 1.19.138.016.214.029.29.033a1.2 1.2 0 0 1 1.118 1.506 2.112 2.112 0 0 1-1.115 1.391 1.167 1.167 0 0 1-1.738-.875c0-.046-.019-.09-.042-.2m.434-.182a.63.63 0 0 0 .981.569 1.608 1.608 0 0 0 .726-.962.592.592 0 0 0-.188-.638.625.625 0 0 0-.65-.154 1.479 1.479 0 0 0-.869 1.184" class="cls-1" transform="translate(-1584.229 1192.118)"/>
            </g>
            <g id="Group_5357" transform="translate(64.506 38.278)">
                <path id="Path_9833" d="M1597.858-1167.148c-.049.3-.095.57-.146.887-1.871-.329-3.7-.654-5.57-.983l.145-.784.766.089c-.214-.26-.41-.46-.561-.688a.956.956 0 0 1-.089-.816 1.681 1.681 0 0 1 .443-.759l.75.435c-.06.111-.108.191-.151.274a.992.992 0 0 0 .474 1.473 4.869 4.869 0 0 0 1.071.342c.841.168 1.69.3 2.535.45.092.017.182.044.333.081" class="cls-1" transform="translate(-1592.141 1170.203)"/>
            </g>
            <g id="Group_5358" transform="translate(12.466 24.32)">
                <path id="Path_9834" d="M1560.265-1177.645v.55c-.188.068-.393.15-.6.21a.619.619 0 0 0-.47.421 1.262 1.262 0 0 1-.27.407.445.445 0 0 1-.516.126.538.538 0 0 1-.378-.427.825.825 0 0 1 .49-.894.424.424 0 0 0 .241-.49c-.029-.253-.207-.365-.424-.237a7.561 7.561 0 0 0-.68.5c-.2.151-.376.322-.585.454a1.3 1.3 0 0 1-.487.188.539.539 0 0 1-.651-.624.375.375 0 0 1 .018-.1c.292-.781.587-1.561.886-2.354a3.3 3.3 0 0 1 .819.264l-.7 1.881.065.033a2.532 2.532 0 0 1 .236-.247 5.943 5.943 0 0 1 .78-.6.758.758 0 0 1 1.115.319 5.115 5.115 0 0 1 .3.76l.362-.056c.132-.021.274-.053.456-.088" class="cls-1" transform="translate(-1555.929 1179.916)"/>
            </g>
            <g id="Group_5359" transform="translate(53.798 24.778)">
                <path id="Path_9835" d="M1584.69-1175.927c.089-.4.161-.707.224-1.015.033-.162.169-.181.286-.228q1.308-.533 2.617-1.061c.316-.128.63-.259.972-.4-.069-.214-.129-.411-.2-.645.257-.1.5-.2.8-.322.307.756.6 1.48.915 2.25-.269.115-.522.22-.808.339l-.322-.724-2.206.889-2.272.916" class="cls-1" transform="translate(-1584.69 1179.597)"/>
            </g>
            <g id="Group_5360" transform="translate(59.983 15.404)">
                <path id="Path_9836" d="M1589.877-1183.073c.057-.115.1-.207.153-.312l-.269-.124a1.288 1.288 0 0 1-.7-.755.85.85 0 0 1 .264-1.015.831.831 0 0 1 1.072-.014 6.679 6.679 0 0 1 .519.476c.138.128.275.257.415.382a.6.6 0 0 0 .115.062c.292-.178.346-.274.29-.5-.087-.346-.323-.527-.772-.576-.042-.092-.095-.194-.138-.3s-.069-.193-.108-.307a.978.978 0 0 1 1.009.172 2.42 2.42 0 0 1 .691 1.049.75.75 0 0 1-.28.937c-.3.211-.6.407-.908.605a3.237 3.237 0 0 0-.966.819c-.135-.21-.254-.394-.389-.6m1.109-1.033a7.764 7.764 0 0 0-.677-.6.365.365 0 0 0-.586.3.671.671 0 0 0 .139.415c.28.346.7.306 1.124-.113" class="cls-1" transform="translate(-1588.994 1186.12)"/>
            </g>
            <g id="Group_5361" transform="translate(7.443 14.342)">
                <path id="Path_9837" d="M1554.055-1186.859a1.69 1.69 0 0 1 1.654 1.641 1.684 1.684 0 0 1-1.6 1.615 1.743 1.743 0 0 1-1.677-1.632 1.659 1.659 0 0 1 1.621-1.624m-.155.743a.735.735 0 0 0-.72.986 1.291 1.291 0 0 0 1.088.772.739.739 0 0 0 .7-1 1.308 1.308 0 0 0-1.067-.753" class="cls-1" transform="translate(-1552.434 1186.859)"/>
            </g>
            <g id="Group_5362" transform="translate(14.877 7.041)">
                <path id="Path_9838" d="M1560.024-1190.22c.223-.1.431-.194.662-.3a1.144 1.144 0 0 1-.175 1.1 1.691 1.691 0 0 1-.947.64 1.255 1.255 0 0 1-1.161-.259 2.1 2.1 0 0 1-.766-1.234 1.278 1.278 0 0 1 .513-1.339 1.328 1.328 0 0 1 1.459-.188 2.032 2.032 0 0 1 .829.8c-.538.425-1.12.773-1.647 1.187a.693.693 0 0 0 .844.367c.3-.1.408-.3.389-.777m-.494-.69c-.325-.427-.694-.5-.994-.248a.62.62 0 0 0 .01.938l.984-.69" class="cls-1" transform="translate(-1557.607 1191.94)"/>
            </g>
            <g id="Group_5363" transform="translate(25.122 2.229)">
                <path id="Path_9839" d="M1565.675-1193.3c.138.437.365.64.674.642s.484-.145.641-.6l.733-.062a1.2 1.2 0 0 1-.526.958 1.785 1.785 0 0 1-1.032.3 1.156 1.156 0 0 1-.909-.4 1.986 1.986 0 0 1-.462-1.806 1.27 1.27 0 0 1 1.078-.99 1.291 1.291 0 0 1 1.42.549 1.778 1.778 0 0 1 .332.866l-1.949.539m1.088-.785c-.177-.53-.513-.723-.889-.556a.6.6 0 0 0-.268.871l1.157-.315" class="cls-1" transform="translate(-1564.736 1195.288)"/>
            </g>
            <g id="Group_5364" transform="translate(62.898 20.395)">
                <path id="Path_9840" d="M1593.038-1179.763c-.295-.624-.572-1.217-.851-1.8a.624.624 0 0 0-.532.657c.01.355.172.507.7.632l.187.665a1.043 1.043 0 0 1-1-.292 1.631 1.631 0 0 1-.522-1.125 1.471 1.471 0 0 1 .145-.675 2.033 2.033 0 0 1 2.028-.9 1.427 1.427 0 0 1 .668 2.321 1.976 1.976 0 0 1-.826.524m.078-.926c.444-.168.614-.516.453-.866s-.527-.443-.963-.227l.51 1.094" class="cls-1" transform="translate(-1591.022 1182.647)"/>
            </g>
            <g id="Group_5365" transform="translate(56.375 10.741)">
                <path id="Path_9841" d="M1588.923-1186.615c-.489-.5-.946-.973-1.4-1.44a.657.657 0 0 0-.289.806c.121.313.325.4.877.367.077.112.168.234.25.361.046.068.082.141.13.225a1.074 1.074 0 0 1-1.147-.037 2.512 2.512 0 0 1-.585-.552 1.206 1.206 0 0 1-.1-1.391 2.114 2.114 0 0 1 1.042-.97 1.334 1.334 0 0 1 1.572.359 1.321 1.321 0 0 1 .207 1.6 2.247 2.247 0 0 1-.555.672m-.224-.892c.378-.37.4-.741.1-1.012a.622.622 0 0 0-.938.138l.836.874" class="cls-1" transform="translate(-1586.483 1189.365)"/>
            </g>
            <g id="Group_5366" transform="translate(44.011 2.825)">
                <path id="Path_9842" d="M1580.652-1192.615l-1.9-.605a.651.651 0 0 0 .115.842c.273.235.512.217.935-.1l.632.332a1.078 1.078 0 0 1-1.062.517 2.458 2.458 0 0 1-.8-.234 1.2 1.2 0 0 1-.694-1.177 2.141 2.141 0 0 1 .456-1.31 1.338 1.338 0 0 1 1.52-.45 1.3 1.3 0 0 1 .973 1.279 1.913 1.913 0 0 1-.177.9m-.6-.68a.638.638 0 0 0-.111-.788.552.552 0 0 0-.648-.125.537.537 0 0 0-.376.546l1.135.366" class="cls-1" transform="translate(-1577.88 1194.873)"/>
            </g>
            <g id="Group_5367" transform="translate(4.918 17.525)">
                <path id="Path_9843" d="M1554.359-1182.734c-.379-.219-.734-.423-1.091-.624-.214-.122-.427-.251-.65-.358-.327-.157-.552-.112-.724.119a.635.635 0 0 0 .053.841 2.161 2.161 0 0 0 .422.315c.353.215.711.415 1.068.624.089.053.174.112.282.182-.125.22-.24.421-.376.664l-2.666-1.538.332-.606c.131.05.236.089.374.139-.016-.146-.029-.26-.039-.374a1.225 1.225 0 0 1 .135-.717.908.908 0 0 1 1.333-.438c.646.336 1.271.713 1.939 1.092l-.392.678" class="cls-1" transform="translate(-1550.677 1184.644)"/>
            </g>
            <g id="Group_5368" transform="translate(64.065 23.635)">
                <path id="Path_9844" d="M1594.681-1177.9c-.115-.2-.227-.389-.346-.6a.784.784 0 0 0 .007-1.01c-.064-.112-.158-.22-.313-.168a.256.256 0 0 0-.156.287c.006.189.021.377.032.564a7.02 7.02 0 0 1 .026.776.824.824 0 0 1-1.138.739 1.068 1.068 0 0 1-.552-.421 2.144 2.144 0 0 1-.4-1.4 1.075 1.075 0 0 1 .5-.849l.355.657a.775.775 0 0 0-.134 1.042.715.715 0 0 0 .154.191.263.263 0 0 0 .46-.18 2.283 2.283 0 0 0-.016-.352c-.017-.3-.043-.611-.042-.915a.78.78 0 0 1 .536-.791.826.826 0 0 1 .96.244 2.14 2.14 0 0 1 .507 1.434.855.855 0 0 1-.444.747" class="cls-1" transform="translate(-1591.834 1180.392)"/>
            </g>
            <g id="Group_5369" transform="translate(15.1 59.965)">
                <path id="Path_9845" d="M1558.531-1149.868l-.769-.5 3.075-4.743c.265.173.506.326.773.5l-3.08 4.744" class="cls-1" transform="translate(-1557.762 1155.112)"/>
            </g>
            <g id="Group_5370" transform="translate(59.176 52.307)">
                <path id="Path_9846" d="M1593.587-1157.193l-.528.753-4.627-3.241.519-.76c1.558 1.089 3.084 2.159 4.636 3.248" class="cls-1" transform="translate(-1588.432 1160.441)"/>
            </g>
            <g id="Group_5371" transform="translate(40.115 64.485)">
                <path id="Path_9847" d="M1577.151-1146.417l-.9.161-1.078-5.538c.306-.057.587-.111.9-.173l1.078 5.55" class="cls-1" transform="translate(-1575.169 1151.967)"/>
            </g>
            <g id="Group_5372" transform="translate(48.624 3.62)">
                <path id="Path_9848" d="M1583.149-1194.32l.723.4c-.578 1.043-1.138 2.058-1.723 3.117.629.353 1.237.7 1.881 1.061-.106.2-.2.378-.318.595l-2.623-1.453 2.06-3.718" class="cls-1" transform="translate(-1581.09 1194.32)"/>
            </g>
            <g id="Group_5373" transform="translate(61.857 17.865)">
                <path id="Path_9849" d="M1591.3-1181.685l-.463.349a4.42 4.42 0 0 1-.379-.469.687.687 0 0 1 .244-1.079c.368-.234.749-.444 1.124-.665.121-.07.24-.145.378-.228l-.112-.358.461-.273.241.267a.474.474 0 0 0 .14-.05.577.577 0 0 1 .821.015c.09.07.191.125.336.217l-.894.537c.078.162.146.307.233.491-.155.1-.307.193-.48.3l-.338-.463c-.476.279-.943.547-1.4.826a.231.231 0 0 0-.063.365c.045.066.092.131.154.219" class="cls-1" transform="translate(-1590.298 1184.408)"/>
            </g>
            <g id="Group_5374" transform="translate(12.283 7.936)">
                <path id="Path_9850" d="M1555.8-1190.823c.221-.18.4-.325.6-.494l2.743 3.268-.588.516-2.761-3.29" class="cls-1" transform="translate(-1555.802 1191.317)"/>
            </g>
            <g id="Group_5375" transform="translate(43.559 13.316)">
                <path id="Path_9851" d="M1577.565-1186.508c.178-.349.329-.65.487-.95a.248.248 0 0 1 .309-.1 1.213 1.213 0 0 1 .838.65 1.93 1.93 0 0 1-.665 2.465.56.56 0 0 1-.717-.042.39.39 0 0 1 .1-.7 2.439 2.439 0 0 0 .5-.262 1.072 1.072 0 0 0 .313-.372.441.441 0 0 0-.277-.648 2.849 2.849 0 0 0-.588-.076 1.657 1.657 0 0 0-.3.033" class="cls-1" transform="translate(-1577.565 1187.573)"/>
            </g>
            <g id="Group_5376" transform="translate(58.321 13.009)">
                <path id="Path_9852" d="M1588.326-1185.245l-.489-.6c.809-.654 1.591-1.289 2.4-1.94.154.185.287.348.434.526l-.233.295c.289.042.572.017.762.251a.705.705 0 0 1 .191.507l-.595.224c-.045-.089-.079-.162-.118-.231a.479.479 0 0 0-.708-.239 3.954 3.954 0 0 0-.621.4c-.338.253-.662.523-1.02.806" class="cls-1" transform="translate(-1587.837 1187.787)"/>
            </g>
            <g id="Group_5377" transform="translate(10.714 24.05)">
                <path id="Path_9853" d="M1554.71-1177.1c.394-1.029.767-2 1.153-3l.826.315c-.39 1.012-.765 1.993-1.151 3l-.828-.315" class="cls-1" transform="translate(-1554.71 1180.104)"/>
            </g>
            <g id="Group_5378" transform="translate(51.805 6.605)">
                <path id="Path_9854" d="M1584.938-1192.243c.23.144.425.266.662.412l-1.633 2.614-.665-.41 1.635-2.617" class="cls-1" transform="translate(-1583.303 1192.243)"/>
            </g>
            <g id="Group_5379" transform="translate(51.852 26.882)">
                <path id="Path_9855" d="M1584.261-1178.133a1.333 1.333 0 0 1 .723.75.692.692 0 0 1 .013.615 3.135 3.135 0 0 1-.341.575c-.277.351-.576.683-.871 1.019-.147.165-.154.161-.45.057.047-.08.086-.161.136-.233.264-.375.537-.744.8-1.124.177-.262.165-.329-.055-.549-.158-.158-.326-.3-.52-.483.094-.108.181-.211.273-.312s.193-.207.295-.317" class="cls-1" transform="translate(-1583.336 1178.133)"/>
            </g>
            <g id="Group_5380" transform="translate(45.124 11.62)">
                <path id="Path_9856" d="M1580.519-1187.012c-.637-.323-1.24-.632-1.865-.951l.4-.789c.626.319 1.232.625 1.867.947-.137.274-.262.52-.4.793" class="cls-1" transform="translate(-1578.654 1188.753)"/>
            </g>
            <g id="Group_5381" transform="translate(47.169 12.572)">
                <path id="Path_9857" d="M1581.978-1186.352l-.009.007c-.086.116-.181.076-.276.016-.527-.329-1.056-.657-1.617-1.009.155-.251.3-.484.463-.753.593.371 1.168.727 1.759 1.1l-.32.642" class="cls-1" transform="translate(-1580.077 1188.091)"/>
            </g>
            <g id="Group_5382" transform="translate(57.389 51.068)">
                <path id="Path_9858" d="M1588.061-1159.946l-.873-.611.529-.746c.292.2.566.394.864.6l-.52.756" class="cls-1" transform="translate(-1587.189 1161.303)"/>
            </g>
            <g id="Group_5383" transform="translate(18.782 58.14)">
                <path id="Path_9859" d="M1560.9-1156.382l.741.483a5.026 5.026 0 0 1-.559.9l-.762-.492c.2-.306.381-.586.579-.894" class="cls-1" transform="translate(-1560.324 1156.382)"/>
            </g>
            <g id="Group_5384" transform="translate(53.699 5.596)">
                <path id="Path_9860" d="M1584.621-1192.341c.134-.216.243-.392.375-.6l.66.4c-.131.211-.243.4-.374.608l-.661-.407" class="cls-1" transform="translate(-1584.621 1192.945)"/>
            </g>
        </g>
        <g id="Group_5393" transform="translate(1626.68 -1180.876)">
            <g id="Group_5386" transform="translate(0 .016)">
                <path id="Path_9861" d="M1611.732-1159.51a17.406 17.406 0 0 1-4.849-.647 14.446 14.446 0 0 1-4.36-2.156v-5.863h3.415l.559 3.8a7.611 7.611 0 0 0 2.285 1.068 10.313 10.313 0 0 0 2.95.4 6.758 6.758 0 0 0 2.617-.447 3.631 3.631 0 0 0 1.62-1.253 3.253 3.253 0 0 0 .561-1.907 3.351 3.351 0 0 0-.49-1.8 4.249 4.249 0 0 0-1.628-1.408 14.491 14.491 0 0 0-3.081-1.148 21.775 21.775 0 0 1-4.769-1.819 7.924 7.924 0 0 1-2.89-2.522 6.142 6.142 0 0 1-.972-3.465 6.13 6.13 0 0 1 1.112-3.626 7.53 7.53 0 0 1 3.09-2.485 11 11 0 0 1 4.569-.928 14.507 14.507 0 0 1 5.017.736 12 12 0 0 1 3.685 2.013v5.479h-3.344l-.63-3.571a6.714 6.714 0 0 0-1.865-.868 9.113 9.113 0 0 0-2.7-.358 5.9 5.9 0 0 0-2.345.437 3.757 3.757 0 0 0-1.594 1.234 3.144 3.144 0 0 0-.578 1.9 2.821 2.821 0 0 0 .509 1.68 4.414 4.414 0 0 0 1.7 1.3 20.678 20.678 0 0 0 3.221 1.182 14.98 14.98 0 0 1 6.286 3.047 6.4 6.4 0 0 1 2.135 4.954 6.153 6.153 0 0 1-1.146 3.7 7.421 7.421 0 0 1-3.222 2.459 12.438 12.438 0 0 1-4.859.876" class="cls-1" transform="translate(-1602.523 1185.72)"/>
            </g>
            <g id="Group_5387" transform="translate(20.868)">
                <path id="Path_9862" d="M1628.178-1159.506a10.721 10.721 0 0 1-4.586-.954 10.143 10.143 0 0 1-3.511-2.687 12.314 12.314 0 0 1-2.249-4.1 16.318 16.318 0 0 1-.789-5.182v-.385a16.257 16.257 0 0 1 .789-5.164 12.413 12.413 0 0 1 2.249-4.106 10.082 10.082 0 0 1 3.511-2.7 10.678 10.678 0 0 1 4.568-.954 11.007 11.007 0 0 1 4.673.954 9.977 9.977 0 0 1 3.521 2.7 12.294 12.294 0 0 1 2.222 4.106 16.552 16.552 0 0 1 .772 5.164v.385a16.614 16.614 0 0 1-.772 5.182 12.2 12.2 0 0 1-2.222 4.1 10.037 10.037 0 0 1-3.521 2.687 10.964 10.964 0 0 1-4.656.954m0-3.5a5.962 5.962 0 0 0 3.808-1.181 6.932 6.932 0 0 0 2.223-3.3 15.217 15.217 0 0 0 .727-4.937v-.42a14.772 14.772 0 0 0-.736-4.883 7.054 7.054 0 0 0-2.232-3.292 5.926 5.926 0 0 0-3.809-1.191 5.724 5.724 0 0 0-3.695 1.191 7.193 7.193 0 0 0-2.24 3.292 14.457 14.457 0 0 0-.752 4.883v.42a14.766 14.766 0 0 0 .752 4.929 7.1 7.1 0 0 0 2.25 3.308 5.791 5.791 0 0 0 3.7 1.181" class="cls-1" transform="translate(-1617.044 1185.731)"/>
            </g>
            <g id="Group_5388" transform="translate(45.57 .367)">
                <path id="Path_9863" d="M1634.233-1159.985v-2.7l2.766-.525v-19.029l-2.766-.525v-2.714h9.087l7.474 18.435h.106l7.248-18.435h9.191v2.714l-2.783.525v19.029l2.783.525v2.7h-9.961v-2.7l2.924-.525v-5.934l.035-11.153-.088-.016-7.9 19.747h-3.2l-8.124-19.643-.086.019.228 10.748v6.232l3.027.525v2.7z" class="cls-1" transform="translate(-1634.233 1185.476)"/>
            </g>
            <g id="Group_5389" transform="translate(79.832 .368)">
                <path id="Path_9864" d="M1658.074-1159.985v-2.7l1.857-.262 8.437-22.532h4.288l8.335 22.532 1.854.262v2.7h-8.105v-2.7l1.821-.332-1.348-4.01h-9.489l-1.382 4.01 1.838.332v2.7zm8.805-10.416h7.2l-3.308-9.436-.227-.683h-.106l-.246.717z" class="cls-1" transform="translate(-1658.074 1185.475)"/>
            </g>
            <g id="Group_5390" transform="translate(106.688 .367)">
                <path id="Path_9865" d="M1676.761-1159.985v-2.7l2.783-.525v-19.029l-2.783-.525v-2.714h9.961v2.714l-2.766.525v19.029l2.766.525v2.7z" class="cls-1" transform="translate(-1676.761 1185.476)"/>
            </g>
            <g id="Group_5391" transform="translate(118.451 .367)">
                <path id="Path_9866" d="M1692.161-1159.985v-2.7l2.766-.525v-5.742l-7.668-13.464-2.311-.349v-2.714h9.593v2.714l-2.433.314 4.728 8.929.384.771.069-.035.367-.719 5.113-8.946-2.889-.314v-2.714h9.4v2.714l-2.4.349-7.562 13.114v6.092l2.784.525v2.7z" class="cls-1" transform="translate(-1684.947 1185.476)"/>
            </g>
            <g id="Group_5392" transform="translate(140.108 .368)">
                <path id="Path_9867" d="M1700.017-1159.985v-2.7l1.857-.262 8.438-22.532h4.29l8.333 22.532 1.855.262v2.7h-8.106v-2.7l1.821-.332-1.348-4.01h-9.489l-1.382 4.01 1.838.332v2.7zm8.805-10.416h7.2l-3.308-9.436-.227-.683h-.107l-.244.717z" class="cls-1" transform="translate(-1700.017 1185.475)"/>
            </g>
        </g>
        <g id="Group_5394" transform="translate(1626.683 -1148.694)">
            <path id="Path_9868" d="M1606.329-1154.007l-2.92-7.9-.884-.1v-1.319h4.182v1.319l-.832.128 1.671 5.24.09.365h.037l.083-.346 1.621-5.258-1-.128v-1.319h3.906v1.319l-.91.1-2.613 7.9z" class="cls-1" transform="translate(-1602.525 1163.339)"/>
            <path id="Path_9869" d="M1615.88-1154.007v-1.313l.967-.2v-6.284l-.967-.2v-1.319h4.176v1.319l-.967.2v6.284l.967.2v1.313z" class="cls-1" transform="translate(-1596.687 1163.339)"/>
            <path id="Path_9870" d="M1625.468-1154.007v-1.313l.98-.237v-6.213l-.98-.243v-1.319h4.369a4.265 4.265 0 0 1 2.236.585 4.115 4.115 0 0 1 1.525 1.621 5.01 5.01 0 0 1 .551 2.386v.148a5.006 5.006 0 0 1-.551 2.386 4.1 4.1 0 0 1-1.525 1.618 4.277 4.277 0 0 1-2.236.582zm3.229-1.7h1.025a1.93 1.93 0 0 0 1.191-.359 2.2 2.2 0 0 0 .727-1.009 4.273 4.273 0 0 0 .247-1.515v-.155a4.243 4.243 0 0 0-.247-1.51 2.192 2.192 0 0 0-.727-1.006 1.939 1.939 0 0 0-1.191-.359h-1.022z" class="cls-1" transform="translate(-1592.497 1163.339)"/>
            <path id="Path_9871" d="M1640.842-1154.007v-1.313l.967-.2v-1.556l-2.7-4.8-.974-.133v-1.319h4.035v1.319l-.576.1 1.282 2.557.147.326h.059l.152-.308 1.5-2.575-.973-.1v-1.319h3.959v1.319l-.987.133-2.677 4.619v1.736l.973.2v1.313z" class="cls-1" transform="translate(-1586.962 1163.339)"/>
            <path id="Path_9872" d="M1650.19-1154.007v-1.313l.654-.095 2.779-7.917h2.434l2.787 7.917.654.095v1.313h-3.485v-1.313l.608-.115-.282-1.012h-3l-.269 1.012.609.115v1.313zm3.626-4.017h2.044l-.91-2.824-.1-.326h-.039l-.109.358z" class="cls-1" transform="translate(-1581.691 1163.339)"/>
            <path id="Path_9873" d="M1666.281-1154.007l-2.922-7.9-.884-.1v-1.319h4.183v1.319l-.834.128 1.672 5.24.09.365h.037l.083-.346 1.621-5.258-1-.128v-1.319h3.908v1.319l-.91.1-2.614 7.9z" class="cls-1" transform="translate(-1576.321 1163.339)"/>
            <path id="Path_9874" d="M1675.831-1154.007v-1.313l.967-.2v-6.284l-.967-.2v-1.319h4.176v1.319l-.967.2v6.284l.967.2v1.313z" class="cls-1" transform="translate(-1570.483 1163.339)"/>
            <path id="Path_9875" d="M1685.42-1154.007v-1.313l.967-.2v-6.284l-.967-.2v-1.319h4.182v1.319l-.967.2v2.358h3.4v-2.358l-.969-.2v-1.319h4.176v1.319l-.966.2v6.284l.966.2v1.313h-4.176v-1.313l.969-.2v-2.2h-3.4v2.2l.967.2v1.313z" class="cls-1" transform="translate(-1566.292 1163.339)"/>
            <path id="Path_9876" d="M1698.168-1154.007v-1.313l.654-.095 2.779-7.917h2.434l2.786 7.917.654.095v1.313h-3.485v-1.313l.608-.115-.281-1.012h-3l-.269 1.012.609.115v1.313zm3.626-4.017h2.044l-.91-2.824-.1-.326h-.039l-.109.358z" class="cls-1" transform="translate(-1560.72 1163.339)"/>
            <path id="Path_9877" d="M1711.252-1154v-1.313l.967-.2v-6.284l-.967-.2v-1.326h4.586a4.818 4.818 0 0 1 1.921.352 2.834 2.834 0 0 1 1.256 1 2.672 2.672 0 0 1 .443 1.541 2.813 2.813 0 0 1-.446 1.525 3.274 3.274 0 0 1-1.221 1.13 3.551 3.551 0 0 1-1.767.42l-1.556-.02v1.865l.967.2v1.31zm3.215-5.106h1.4a1.5 1.5 0 0 0 1.006-.3 1.1 1.1 0 0 0 .352-.881 1.3 1.3 0 0 0-.359-.957 1.378 1.378 0 0 0-1.025-.362h-1.371zm2.69 5.106l-1.255-3.639 1.953-.665 1.134 2.774.884.224v1.306z" class="cls-1" transform="translate(-1555.001 1163.337)"/>
        </g>
    </g>
</svg>
